<svg xmlns="http://www.w3.org/2000/svg" width="50" height="40" fill="none" viewBox="0 0 50 40">
  <path fill="#000" d="M11.25 37.5C5.04 37.5 0 32.46 0 26.25c0-4.906 3.14-9.078 7.516-10.617-.008-.211-.016-.422-.016-.633C7.5 8.094 13.094 2.5 20 2.5c4.633 0 8.672 2.516 10.836 6.266A7.462 7.462 0 0 1 35 7.5c4.14 0 7.5 3.36 7.5 7.5 0 .953-.18 1.86-.5 2.703 4.563.922 8 4.961 8 9.797 0 5.523-4.477 10-10 10H11.25Zm6.172-16.953a1.867 1.867 0 0 0 0 2.648 1.874 1.874 0 0 0 2.648 0l3.047-3.047v10.477a1.87 1.87 0 0 0 1.875 1.875 1.87 1.87 0 0 0 1.875-1.875V20.148l3.047 3.047a1.867 1.867 0 0 0 2.648 0 1.874 1.874 0 0 0 0-2.648l-6.25-6.25a1.867 1.867 0 0 0-2.648 0l-6.25 6.25h.008Z"/>
</svg>
