<svg xmlns="http://www.w3.org/2000/svg" width="48" height="38" fill="none" viewBox="0 0 48 38">
  <g clip-path="url(#a)">
    <path fill="#000" d="M19.2 0h24C45.847 0 48 2.13 48 4.75v16.625c0 2.62-2.153 4.75-4.8 4.75h-24c-2.648 0-4.8-2.13-4.8-4.75V4.75C14.4 2.13 16.552 0 19.2 0Zm16.5 7.92a1.813 1.813 0 0 0-3 0l-4.2 6.233-1.297-1.61a1.814 1.814 0 0 0-1.403-.668c-.54 0-1.065.245-1.402.668l-4.8 5.938a1.762 1.762 0 0 0-.218 1.885c.3.616.93 1.009 1.62 1.009h20.4c.668 0 1.275-.364 1.59-.943a1.758 1.758 0 0 0-.09-1.825L35.7 7.919Zm-10.5-.795c0-.63-.253-1.234-.703-1.68A2.413 2.413 0 0 0 22.8 4.75a2.41 2.41 0 0 0-1.697.696 2.363 2.363 0 0 0-.703 1.679c0 .63.253 1.234.703 1.68.45.445 1.06.695 1.697.695.636 0 1.247-.25 1.697-.696.45-.445.703-1.05.703-1.679ZM4.8 9.5H12v21.375a2.385 2.385 0 0 0 2.4 2.375H24c1.328 0 2.4-1.061 2.4-2.375V28.5h12v4.75c0 2.62-2.152 4.75-4.8 4.75H4.8C2.153 38 0 35.87 0 33.25v-19C0 11.63 2.152 9.5 4.8 9.5Zm.6 4.75c-.66 0-1.2.534-1.2 1.188v1.187c0 .653.54 1.188 1.2 1.188h1.2c.66 0 1.2-.535 1.2-1.188v-1.188c0-.653-.54-1.187-1.2-1.187H5.4Zm0 7.719c-.66 0-1.2.534-1.2 1.187v1.188c0 .653.54 1.187 1.2 1.187h1.2c.66 0 1.2-.534 1.2-1.187v-1.188c0-.653-.54-1.187-1.2-1.187H5.4Zm0 7.718c-.66 0-1.2.535-1.2 1.188v1.188c0 .653.54 1.187 1.2 1.187h1.2c.66 0 1.2-.534 1.2-1.188v-1.187c0-.653-.54-1.188-1.2-1.188H5.4Zm25.2 1.188v1.188c0 .653.54 1.187 1.2 1.187H33c.66 0 1.2-.534 1.2-1.188v-1.187c0-.653-.54-1.188-1.2-1.188h-1.2c-.66 0-1.2.535-1.2 1.188Z"/>
  </g>
  <defs>
    <clipPath id="a">
      <path fill="#fff" d="M0 0h48v38H0z"/>
    </clipPath>
  </defs>
</svg>
