<svg xmlns="http://www.w3.org/2000/svg" width="46" height="53" fill="none" viewBox="0 0 46 53">
  <path fill="#000" d="M0 8.281c0-2.743 2.208-4.969 4.929-4.969h9.857c2.72 0 4.928 2.226 4.928 4.97v9.937c0 2.743-2.207 4.968-4.928 4.968H4.929C2.208 23.188 0 20.962 0 18.22V8.28Zm6.571 1.656v6.626h6.572V9.938H6.57ZM0 34.782c0-2.743 2.208-4.968 4.929-4.968h9.857c2.72 0 4.928 2.225 4.928 4.968v9.938c0 2.743-2.207 4.968-4.928 4.968H4.929C2.208 49.688 0 47.462 0 44.72v-9.94Zm6.571 1.657v6.624h6.572v-6.624H6.57ZM31.214 3.312h9.857c2.721 0 4.929 2.226 4.929 4.97v9.937c0 2.743-2.208 4.968-4.929 4.968h-9.857c-2.72 0-4.928-2.225-4.928-4.968V8.28c0-2.743 2.207-4.969 4.928-4.969Zm8.215 6.626h-6.572v6.624h6.572V9.938Zm-13.143 21.53c0-.91.739-1.655 1.643-1.655H34.5c.904 0 1.643.745 1.643 1.656 0 .91.74 1.656 1.643 1.656h3.285c.904 0 1.643-.745 1.643-1.656 0-.911.74-1.657 1.643-1.657.904 0 1.643.746 1.643 1.657v9.937c0 .911-.74 1.657-1.643 1.657h-6.571a1.654 1.654 0 0 1-1.643-1.657c0-.91-.74-1.656-1.643-1.656-.904 0-1.643.745-1.643 1.656v6.625c0 .911-.74 1.657-1.643 1.657H27.93a1.654 1.654 0 0 1-1.643-1.657V31.47Zm11.5 18.22c-.436 0-.854-.175-1.162-.486a1.663 1.663 0 0 1 0-2.342 1.636 1.636 0 0 1 2.323 0 1.663 1.663 0 0 1 0 2.342 1.635 1.635 0 0 1-1.161.486Zm6.571 0c-.436 0-.853-.175-1.161-.486a1.663 1.663 0 0 1 0-2.342 1.636 1.636 0 0 1 2.323 0 1.663 1.663 0 0 1 0 2.342 1.635 1.635 0 0 1-1.162.486Z"/>
</svg>
