<svg xmlns="http://www.w3.org/2000/svg" width="50" height="40" fill="none" viewBox="0 0 50 40">
  <path fill="#000" d="M4.234 15.852C9.625 10.68 16.938 7.5 25 7.5c8.063 0 15.375 3.18 20.766 8.352 1 .953 2.578.921 3.53-.07a2.502 2.502 0 0 0-.07-3.532A34.842 34.842 0 0 0 25 2.5C15.594 2.5 7.055 6.21.766 12.242a2.511 2.511 0 0 0-.07 3.54c.952 1 2.538 1.03 3.53.07h.008ZM25 20a17.44 17.44 0 0 1 11.578 4.375 2.506 2.506 0 0 0 3.531-.219 2.506 2.506 0 0 0-.218-3.531A22.45 22.45 0 0 0 25 15a22.414 22.414 0 0 0-14.883 5.625 2.499 2.499 0 0 0-.219 3.531 2.499 2.499 0 0 0 3.532.219A17.41 17.41 0 0 1 25.008 20H25Zm5 12.5a5 5 0 1 0-10 0 5 5 0 0 0 10 0Z"/>
</svg>
